<svg xmlns="http://www.w3.org/2000/svg" width="20" height="20" viewBox="0 0 14 16" shape-rendering="crispEdges">
  <rect x="1" y="0" width="12" height="1" fill="black"/>
  <rect x="0" y="1" width="1" height="1" fill="black"/><rect x="1" y="1" width="12" height="1" fill="white"/><rect x="13" y="1" width="1" height="1" fill="black"/>
  <rect x="0" y="2" width="14" height="1" fill="black"/>
  <rect x="1" y="3" width="1" height="1" fill="black"/><rect x="2" y="3" width="10" height="1" fill="black"/><rect x="12" y="3" width="1" height="1" fill="black"/>
  <rect x="2" y="4" width="1" height="1" fill="black"/><rect x="3" y="4" width="8" height="1" fill="white"/><rect x="11" y="4" width="1" height="1" fill="black"/>
  <rect x="3" y="5" width="1" height="1" fill="black"/><rect x="4" y="5" width="6" height="1" fill="white"/><rect x="10" y="5" width="1" height="1" fill="black"/>
  <rect x="4" y="6" width="1" height="1" fill="black"/><rect x="5" y="6" width="4" height="1" fill="white"/><rect x="9" y="6" width="1" height="1" fill="black"/>
  <rect x="5" y="7" width="1" height="1" fill="black"/><rect x="6" y="7" width="2" height="1" fill="white"/><rect x="8" y="7" width="1" height="1" fill="black"/>
  <rect x="6" y="8" width="2" height="1" fill="black"/>
  <rect x="5" y="9" width="1" height="1" fill="black"/><rect x="6" y="9" width="2" height="1" fill="white"/><rect x="8" y="9" width="1" height="1" fill="black"/>
  <rect x="4" y="10" width="1" height="1" fill="black"/><rect x="5" y="10" width="4" height="1" fill="white"/><rect x="9" y="10" width="1" height="1" fill="black"/>
  <rect x="3" y="11" width="1" height="1" fill="black"/><rect x="4" y="11" width="2" height="1" fill="white"/><rect x="6" y="11" width="2" height="1" fill="black"/><rect x="8" y="11" width="2" height="1" fill="white"/><rect x="10" y="11" width="1" height="1" fill="black"/>
  <rect x="2" y="12" width="1" height="1" fill="black"/><rect x="3" y="12" width="3" height="1" fill="white"/><rect x="6" y="12" width="2" height="1" fill="black"/><rect x="8" y="12" width="3" height="1" fill="white"/><rect x="11" y="12" width="1" height="1" fill="black"/>
  <rect x="0" y="13" width="14" height="1" fill="black"/>
  <rect x="0" y="14" width="1" height="1" fill="black"/><rect x="1" y="14" width="12" height="1" fill="white"/><rect x="13" y="14" width="1" height="1" fill="black"/>
  <rect x="1" y="15" width="12" height="1" fill="black"/>
</svg>
