<svg xmlns="http://www.w3.org/2000/svg" viewBox="0 0 24 24" width="48" height="48" style="image-rendering: pixelated;">
  <g stroke="#000000" stroke-width="1" stroke-linejoin="miter" stroke-linecap="square">
    
    <path d="M 7 6 L 12 5 L 16 6 L 19 9 L 21 13 L 19 17 L 14 20 L 8 20 L 4 16 L 3 11 L 4 8 Z" fill="#D97706" />
    
    <rect x="5" y="9" width="2" height="1" fill="#B45309" stroke="none" />
    <rect x="18" y="12" width="1" height="2" fill="#B45309" stroke="none" />
    <rect x="13" y="18" width="3" height="1" fill="#B45309" stroke="none" />
    <rect x="7" y="17" width="2" height="1" fill="#B45309" stroke="none" />

    <rect x="8" y="7" width="2" height="1" fill="#FBBF24" stroke="none" />
    <rect x="17" y="9" width="1" height="2" fill="#FBBF24" stroke="none" />

    <rect x="10" y="6" width="4" height="4" fill="#9CA3AF" />
    <rect x="11" y="7" width="1" height="2" fill="#4B5563" />

    <rect x="7" y="12" width="10" height="5" fill="#FFFFFF" />
    <line x1="9" y1="14" x2="15" y2="14" stroke="#6B7280" stroke-width="1" />
    <line x1="9" y1="16" x2="13" y2="16" stroke="#06B6D4" stroke-width="1" />
  </g>

  <g fill="#22D3EE">
    <rect x="20" y="4" width="1" height="1" fill="#FFFFFF" /> <rect x="20" y="3" width="1" height="1" /> <rect x="20" y="5" width="1" height="1" />
    <rect x="19" y="4" width="1" height="1" />
    <rect x="21" y="4" width="1" height="1" />
  </g>
  
  <g fill="#FFFFFF">
    <rect x="2" y="15" width="1" height="1" />
    <rect x="3" y="16" width="1" height="1" />
    <rect x="2" y="16" width="1" height="1" fill="#22D3EE" />
  </g>
</svg>
