<svg xmlns="http://www.w3.org/2000/svg" viewBox="0 0 32 32" width="128" height="128" style="image-rendering: pixelated;">
  <!-- Body: golden nugget blob -->
  <g fill="#E8B84B">
    <rect x="10" y="5" width="12" height="1"/>
    <rect x="7" y="6" width="18" height="1"/>
    <rect x="6" y="7" width="20" height="1"/>
    <rect x="5" y="8" width="22" height="1"/>
    <rect x="4" y="9" width="24" height="1"/>
    <rect x="4" y="10" width="24" height="1"/>
    <rect x="3" y="11" width="26" height="1"/>
    <rect x="3" y="12" width="26" height="1"/>
    <rect x="3" y="13" width="26" height="1"/>
    <rect x="3" y="14" width="26" height="1"/>
    <rect x="3" y="15" width="26" height="1"/>
    <rect x="3" y="16" width="26" height="1"/>
    <rect x="4" y="17" width="24" height="1"/>
    <rect x="4" y="18" width="24" height="1"/>
    <rect x="5" y="19" width="22" height="1"/>
    <rect x="6" y="20" width="20" height="1"/>
    <rect x="7" y="21" width="18" height="1"/>
    <rect x="8" y="22" width="16" height="1"/>
    <rect x="10" y="23" width="12" height="1"/>
    <rect x="12" y="24" width="8" height="1"/>
  </g>

  <!-- Dark brown edge/shadow -->
  <g fill="#7A4A1A">
    <rect x="10" y="4" width="12" height="1"/>
    <rect x="7" y="5" width="3" height="1"/>
    <rect x="22" y="5" width="3" height="1"/>
    <rect x="5" y="6" width="2" height="1"/>
    <rect x="25" y="6" width="2" height="1"/>
    <rect x="4" y="7" width="2" height="1"/>
    <rect x="26" y="7" width="1" height="1"/>
    <rect x="3" y="8" width="1" height="1"/>
    <rect x="27" y="8" width="1" height="1"/>
    <rect x="2" y="9" width="2" height="1"/>
    <rect x="28" y="9" width="1" height="1"/>
    <rect x="2" y="10" width="1" height="1"/>
    <rect x="28" y="10" width="1" height="1"/>
    <rect x="2" y="11" width="1" height="7"/>
    <rect x="29" y="11" width="1" height="5"/>
    <rect x="28" y="16" width="1" height="2"/>
    <rect x="27" y="18" width="1" height="1"/>
    <rect x="26" y="19" width="1" height="1"/>
    <rect x="25" y="20" width="1" height="1"/>
    <rect x="24" y="21" width="1" height="1"/>
    <rect x="22" y="22" width="2" height="1"/>
    <rect x="20" y="23" width="2" height="1"/>
    <rect x="3" y="17" width="1" height="1"/>
    <rect x="3" y="18" width="1" height="1"/>
    <rect x="4" y="19" width="1" height="1"/>
    <rect x="5" y="20" width="1" height="1"/>
    <rect x="6" y="21" width="1" height="1"/>
    <rect x="7" y="22" width="1" height="1"/>
    <rect x="8" y="23" width="2" height="1"/>
    <rect x="10" y="24" width="2" height="1"/>
  </g>

  <!-- Lighter gold highlights -->
  <g fill="#F5D880">
    <rect x="8" y="7" width="6" height="1"/>
    <rect x="7" y="8" width="4" height="1"/>
    <rect x="6" y="9" width="3" height="1"/>
    <rect x="6" y="10" width="2" height="1"/>
    <rect x="5" y="11" width="2" height="1"/>
  </g>

  <!-- Medium brown shading -->
  <g fill="#C48A2C">
    <rect x="20" y="17" width="6" height="1"/>
    <rect x="22" y="18" width="4" height="1"/>
    <rect x="18" y="19" width="6" height="1"/>
    <rect x="16" y="20" width="8" height="1"/>
    <rect x="14" y="21" width="8" height="1"/>
  </g>

  <!-- Eyes: dark squares with white highlight -->
  <rect x="11" y="13" width="2" height="2" fill="#3D2B12"/>
  <rect x="19" y="13" width="2" height="2" fill="#3D2B12"/>
  <rect x="11" y="13" width="1" height="1" fill="#FFFFFF"/>
  <rect x="19" y="13" width="1" height="1" fill="#FFFFFF"/>

  <!-- Mouth: small w shape -->
  <rect x="14" y="16" width="1" height="1" fill="#3D2B12"/>
  <rect x="15" y="15" width="1" height="1" fill="#3D2B12"/>
  <rect x="16" y="16" width="1" height="1" fill="#3D2B12"/>
  <rect x="17" y="15" width="1" height="1" fill="#3D2B12"/>

  <!-- Sparkles -->
  <g fill="#FBBF24">
    <!-- Top right sparkle -->
    <rect x="25" y="2" width="1" height="3"/>
    <rect x="24" y="3" width="3" height="1"/>
    <rect x="25" y="3" width="1" height="1" fill="#FFFFFF"/>
    <!-- Left sparkle -->
    <rect x="1" y="13" width="1" height="3"/>
    <rect x="0" y="14" width="3" height="1"/>
    <rect x="1" y="14" width="1" height="1" fill="#FFFFFF"/>
    <!-- Bottom sparkle -->
    <rect x="14" y="27" width="1" height="2"/>
    <rect x="13" y="28" width="3" height="1"/>
    <rect x="14" y="28" width="1" height="1" fill="#FFFFFF"/>
  </g>

  <!-- Small sparkle dots -->
  <g fill="#FBBF24">
    <rect x="5" y="4" width="1" height="1"/>
    <rect x="28" y="6" width="1" height="1"/>
    <rect x="30" y="14" width="1" height="1"/>
    <rect x="1" y="8" width="1" height="1"/>
    <rect x="8" y="26" width="1" height="1"/>
    <rect x="23" y="25" width="1" height="1"/>
  </g>
</svg>
